{"title":"Transformers 3 Dark of the Moon 2011 RUS CAMRip XviD Relizlab","uid":6506597,"size":1470584385,"categoryP":"video","categoryS":"movies","magnet":"?xt=urn:btih:870a3c27218831da51426ed0205ac613b5d9a88f&amp;dn=Transformers+3+Dark+of+the+Moon+2011+RUS+CAMRip+XviD+Relizlab&amp;tr=udp%3A%2F%2Ftracker.openbittorrent.com%3A80&amp;tr=udp%3A%2F%2Fopen.demonii.com%3A1337&amp;tr=udp%3A%2F%2Ftracker.coppersurfer.tk%3A6969&amp;tr=udp%3A%2F%2Fexodus.desync.com%3A6969","seeders":1,"leechers":0,"uploader":"TorrentXXLS","files":-1,"time":1309444544,"description":"Transformers 3 Dark of the Moon 2011 RUS CAMRip XviD Relizlab\n\n+++++++++++++++++++++++++++++++++++++++++++++++++++++++++++++\n\nThe Autobots learn of a Cybertronian spacecraft hidden on the Moon, and race against the Decepticons to reach it and to learn its secrets \n\nDirector:\nMichael Bay\nWriter:\nEhren Kruger\nStars:\nShia LaBeouf, Rosie Huntington-Whiteley and Tyrese Gibson \n\n\n\n\nFormat : AVI\nFormat/Info : Audio Video Interleave\nFile size : 1.37 GiB\nDuration : 2h 25mn\nOverall bit rate : 1 346 Kbps\nWriting application : VirtualDubMod 1.5.4.1 (build 2178/release)\nWriting library : VirtualDubMod build 2178/release\n\nVideo\nID : 0\nFormat : MPEG-4 Visual\nFormat profile : Advanced Simple@L5\nFormat settings, BVOP : 2\nFormat settings, QPel : No\nFormat settings, GMC : No warppoints\nFormat settings, Matrix : Custom\nCodec ID : XVID\nCodec ID/Hint : XviD\nDuration : 2h 25mn\nBit rate : 1 208 Kbps\nWidth : 720 pixels\nHeight : 352 pixels\nDisplay aspect ratio : 2.045\nFrame rate : 25.000 fps\nColor space : YUV\nChroma subsampling : 4:2:0\nBit depth : 8 bits\nScan type : Progressive\nCompression mode : Lossy\nBits/(Pixel*Frame) : 0.191\nStream size : 1.23 GiB (90%)\nWriting library : XviD 58\n\nAudio\nID : 1\nFormat : MPEG Audio\nFormat version : Version 1\nFormat profile : Layer 3\nCodec ID : 55\nCodec ID/Hint : MP3\nDuration : 2h 25mn\nBit rate mode : Constant\nBit rate : 128 Kbps\nChannel(s) : 2 channels\nSampling rate : 48.0 KHz\nCompression mode : Lossy\nStream size : 133 MiB (10%)\nAlignment : Aligned on interleaves\nInterleave, duration : 40 ms (1.00 video frame)\nInterleave, preload duration : 504 ms\nWriting library : LAME3.98r\nEncoding settings : -m s -V 4 -q 7 -lowpass 17 -b 128\n\n+++++++++++++++++++++++++++++++++++++++++++++++++++++\n\nPoster:\n &lt;a href=&quot;\nhttp://leetleech.org/images/23014224490610809416.jpg&quot; rel=&quot;nofollow&quot; target=&quot;_NEW&quot;&gt;\nhttp://leetleech.org/images/23014224490610809416.jpg&lt;/a&gt;\n\nScreens:\n &lt;a href=&quot;\nhttp://leetleech.org/images/56545583464207665717.png&quot; rel=&quot;nofollow&quot; target=&quot;_NEW&quot;&gt;\nhttp://leetleech.org/images/56545583464207665717.png&lt;/a&gt;\n &lt;a href=&quot;\nhttp://leetleech.org/images/70598676305503984140.png&quot; rel=&quot;nofollow&quot; target=&quot;_NEW&quot;&gt;\nhttp://leetleech.org/images/70598676305503984140.png&lt;/a&gt;\n &lt;a href=&quot;\nhttp://leetleech.org/images/20202818970545370502.png&quot; rel=&quot;nofollow&quot; target=&quot;_NEW&quot;&gt;\nhttp://leetleech.org/images/20202818970545370502.png&lt;/a&gt;\n","torrent":{"xt":"urn:btih:870a3c27218831da51426ed0205ac613b5d9a88f","amp;dn":"Transformers+3+Dark+of+the+Moon+2011+RUS+CAMRip+XviD+Relizlab","amp;tr":["udp%3A%2F%2Ftracker.openbittorrent.com%3A80","udp%3A%2F%2Fopen.demonii.com%3A1337","udp%3A%2F%2Ftracker.coppersurfer.tk%3A6969","udp%3A%2F%2Fexodus.desync.com%3A6969"],"infoHash":"870a3c27218831da51426ed0205ac613b5d9a88f","infoHashBuffer":{"type":"Buffer","data":[135,10,60,39,33,136,49,218,81,66,110,208,32,90,198,19,181,217,168,143]},"announce":[],"urlList":[]}}